<?xml version="1.0" encoding="UTF-8" standalone="no"?>
<svg width="145px" height="174px" viewBox="0 0 145 174" version="1.1" xmlns="http://www.w3.org/2000/svg" xmlns:xlink="http://www.w3.org/1999/xlink" xmlns:sketch="http://www.bohemiancoding.com/sketch/ns">
    <!-- Generator: Sketch 3.3.2 (12043) - http://www.bohemiancoding.com/sketch -->
    <title>nav-image-1</title>
    <desc>Created with Sketch.</desc>
    <defs></defs>
    <g id="Page-1" stroke="none" stroke-width="1" fill="none" fill-rule="evenodd" sketch:type="MSPage">
        <g id="v7" sketch:type="MSArtboardGroup" transform="translate(-270.000000, -124.000000)">
            <g id="hero-section" sketch:type="MSLayerGroup" transform="translate(79.500000, 50.000000)">
                <g id="1" transform="translate(82.000000, 0.000000)" sketch:type="MSShapeGroup">
                    <g id="nav-image-1" transform="translate(88.000000, 70.000000)">
                        <rect id="bg" x="0" y="0" width="170" height="180"></rect>
                        <path d="M101.125977,165 L21,165 L21,5 L143,5 L143,106.937988" id="Rectangle-310" stroke="#232323" fill="#FFFFFF"></path>
                        <path d="M51.4726563,101.302734 L113.742258,101.302734" id="Path-296" stroke="#232323" fill="#FFFFFF"></path>
                        <path d="M51.4726562,116.302734 L106,116.302734" id="Path-296-Copy" stroke="#232323" fill="#FFFFFF"></path>
                        <circle id="Oval-1195" stroke="#232323" fill="#FFFFFF" cx="133" cy="145" r="32"></circle>
                        <circle id="Oval-1195-Copy-3" stroke="#232323" fill="#FFFFFF" transform="translate(82.000000, 62.000000) scale(1, -1) translate(-82.000000, -62.000000) " cx="82" cy="62" r="23"></circle>
                        <circle id="Oval-1195-Copy-4" stroke="#232323" fill="#FFFFFF" transform="translate(82.000000, 55.000000) scale(1, -1) translate(-82.000000, -55.000000) " cx="82" cy="55" r="7"></circle>
                        <circle id="Oval-1195-Copy-5" stroke="#232323" fill="#FFFFFF" transform="translate(82.000000, 55.000000) scale(1, -1) translate(-82.000000, -55.000000) " cx="82" cy="55" r="7"></circle>
                        <path d="M69.4577542,73.2272531 L69.4577542,73.2272531 C71.749585,77.8343178 76.5051002,81 82,81 C87.9256519,81 92.9914529,77.3185405 95.0349742,72.1180504" id="Oval-1195-Copy-6" stroke="#232323" fill="#FFFFFF" transform="translate(82.728877, 74.000000) scale(1, -1) translate(-82.728877, -74.000000) "></path>
                        <circle id="Oval-1195-Copy-2" stroke="#232323" fill="#FFFFFF" cx="133.5" cy="158.5" r="1.5"></circle>
                        <path d="M133.564029,151.71936 C133.564029,151.71936 133.377705,146.993403 133.564029,146.980425 C137.71912,146.69102 141,143.228655 141,139 C141,134.581722 137.418278,131 133,131 C128.581722,131 125,134.581722 125,139" id="Oval-1195-Copy" stroke="#232323" fill="#FFFFFF"></path>
                        <path d="M51.4726562,131.302734 L96,131.302734" id="Path-296-Copy-2" stroke="#232323" fill="#FFFFFF"></path>
                    </g>
                </g>
            </g>
        </g>
    </g>
</svg>